<svg xmlns="http://www.w3.org/2000/svg" xmlns:xlink="http://www.w3.org/1999/xlink" version="1.1" x="0px" y="0px" viewBox="0 0 140 175" style="enable-background:new 0 0 140 140;" xml:space="preserve"><g><g><g><path d="M88.0854492,135H29.6347656C16.0512695,135,5,123.9492188,5,110.3652344s11.0512695-24.6347656,24.6347656-24.6347656     c1.8320312,0,3.6762695,0.2128906,5.5,0.6347656c0.1962891-13.4160156,11.1704102-24.2695312,24.6323242-24.2695312     c11.0268555,0,20.6181641,7.2744141,23.6459961,17.8027344c1.5385742-0.2607422,3.105957-0.3925781,4.6723633-0.3925781     c15.2998047,0,27.7470703,12.4472656,27.7470703,27.7470703S103.3852539,135,88.0854492,135z M29.6347656,87.7304688     C17.1538086,87.7304688,7,97.8847656,7,110.3652344S17.1538086,133,29.6347656,133h58.4506836     c14.1967773,0,25.7470703-11.5498047,25.7470703-25.7470703s-11.550293-25.7470703-25.7470703-25.7470703     c-1.7480469,0-3.4970703,0.1767578-5.1982422,0.5253906c-0.5253906,0.1064453-1.0424805-0.21875-1.1713867-0.7392578     c-2.5019531-10.125-11.527832-17.1962891-21.9487305-17.1962891c-12.480957,0-22.6347656,10.1542969-22.6347656,22.6347656     c0,0.1689453,0.012207,0.3349609,0.0234375,0.5009766c0.0092773,0.1328125,0.0180664,0.2646484,0.0229492,0.3984375     c0.0126953,0.3212891-0.1293945,0.6279297-0.3823242,0.8261719c-0.253418,0.1982422-0.5864258,0.2617188-0.8935547,0.1738281     C33.8320312,88.0332031,31.7231445,87.7304688,29.6347656,87.7304688z"/></g><g><g><path d="M81.7197266,113.7119141c-3.9233398,0-7.1152344-3.1914062-7.1152344-7.1152344      s3.1918945-7.1152344,7.1152344-7.1152344s7.1152344,3.1914062,7.1152344,7.1152344      S85.6430664,113.7119141,81.7197266,113.7119141z M81.7197266,101.4814453      c-2.8203125,0-5.1152344,2.2949219-5.1152344,5.1152344s2.2949219,5.1152344,5.1152344,5.1152344      s5.1152344-2.2949219,5.1152344-5.1152344S84.5400391,101.4814453,81.7197266,101.4814453z"/></g><g><path d="M60.4160156,113.7119141c-3.9233398,0-7.1152344-3.1914062-7.1152344-7.1152344      s3.1918945-7.1152344,7.1152344-7.1152344c3.9238281,0,7.1157227,3.1914062,7.1157227,7.1152344      S64.3398438,113.7119141,60.4160156,113.7119141z M60.4160156,101.4814453      c-2.8203125,0-5.1152344,2.2949219-5.1152344,5.1152344s2.2949219,5.1152344,5.1152344,5.1152344      c2.8208008,0,5.1157227-2.2949219,5.1157227-5.1152344S63.2368164,101.4814453,60.4160156,101.4814453z"/></g><g><path d="M39.112793,113.7119141c-3.9238281,0-7.1157227-3.1914062-7.1157227-7.1152344s3.1918945-7.1152344,7.1157227-7.1152344      c3.9233398,0,7.1152344,3.1914062,7.1152344,7.1152344S43.0361328,113.7119141,39.112793,113.7119141z M39.112793,101.4814453      c-2.8208008,0-5.1157227,2.2949219-5.1157227,5.1152344s2.2949219,5.1152344,5.1157227,5.1152344      c2.8203125,0,5.1152344-2.2949219,5.1152344-5.1152344S41.9331055,101.4814453,39.112793,101.4814453z"/></g></g></g><g><g><path d="M99.9042969,64.0957031c-13.2333984,0-24-10.7666016-24-24s10.7666016-24,24-24s24,10.7666016,24,24     S113.1376953,64.0957031,99.9042969,64.0957031z M99.9042969,18.0957031c-12.1308594,0-22,9.8691406-22,22s9.8691406,22,22,22     s22-9.8691406,22-22S112.0351562,18.0957031,99.9042969,18.0957031z"/></g><g><g><path d="M99.9042969,13.3076172c-0.5522461,0-1-0.4472656-1-1V6c0-0.5527344,0.4477539-1,1-1s1,0.4472656,1,1v6.3076172      C100.9042969,12.8603516,100.456543,13.3076172,99.9042969,13.3076172z"/></g><g><path d="M134,41.0957031h-6.3076172c-0.5522461,0-1-0.4472656-1-1s0.4477539-1,1-1H134c0.5522461,0,1,0.4472656,1,1      S134.5522461,41.0957031,134,41.0957031z"/></g><g><path d="M126.3325195,32.5087891c-0.421875,0-0.8139648-0.2685547-0.9511719-0.6914062      c-0.1704102-0.5244141,0.1166992-1.0888672,0.6420898-1.2597656l5.9985352-1.9492188      c0.5273438-0.1689453,1.090332,0.1171875,1.2602539,0.6425781c0.1704102,0.5244141-0.1166992,1.0888672-0.6420898,1.2597656      l-5.9985352,1.9492188C126.5390625,32.4931641,126.4345703,32.5087891,126.3325195,32.5087891z"/></g><g><path d="M122.3867188,24.7617188c-0.3095703,0-0.6142578-0.1425781-0.8100586-0.4121094      c-0.324707-0.4472656-0.2255859-1.0722656,0.2211914-1.3964844l5.1025391-3.7070312      c0.4472656-0.3242188,1.0722656-0.2265625,1.3969727,0.2207031s0.2255859,1.0722656-0.2211914,1.3964844l-5.1025391,3.7070312      C122.7958984,24.6992188,122.590332,24.7617188,122.3867188,24.7617188z"/></g><g><path d="M116.2368164,18.6142578c-0.2036133,0-0.4091797-0.0625-0.5869141-0.1914062      c-0.4467773-0.3242188-0.5458984-0.9492188-0.2211914-1.3964844l3.7075195-5.1025391      c0.3251953-0.4462891,0.9501953-0.5458984,1.3969727-0.2207031c0.4467773,0.3242188,0.5458984,0.9492188,0.2211914,1.3964844      l-3.7075195,5.1025391C116.8510742,18.4716797,116.5463867,18.6142578,116.2368164,18.6142578z"/></g><g><path d="M108.4912109,14.6669922c-0.1020508,0-0.206543-0.015625-0.309082-0.0488281      c-0.5253906-0.1708984-0.8125-0.7353516-0.6420898-1.2597656l1.9492188-5.9980469      c0.1713867-0.5244141,0.734375-0.8125,1.2602539-0.6425781c0.5253906,0.1708984,0.8125,0.7353516,0.6420898,1.2597656      l-1.9492188,5.9980469C109.3046875,14.3984375,108.9130859,14.6669922,108.4912109,14.6669922z"/></g></g><g><g><path d="M72.1162109,41.0957031h-6.3076172c-0.5522461,0-1-0.4472656-1-1s0.4477539-1,1-1h6.3076172      c0.5522461,0,1,0.4472656,1,1S72.668457,41.0957031,72.1162109,41.0957031z"/></g><g><path d="M73.4760742,32.5087891c-0.1020508,0-0.206543-0.015625-0.309082-0.0488281l-5.9985352-1.9492188      c-0.5253906-0.1708984-0.8125-0.7353516-0.6420898-1.2597656c0.1704102-0.5253906,0.7353516-0.8115234,1.2602539-0.6425781      l5.9985352,1.9492188c0.5253906,0.1708984,0.8125,0.7353516,0.6420898,1.2597656      C74.2900391,32.2402344,73.8979492,32.5087891,73.4760742,32.5087891z"/></g><g><path d="M77.421875,24.7617188c-0.2036133,0-0.4091797-0.0615234-0.5869141-0.1914062l-5.1025391-3.7070312      c-0.4467773-0.3242188-0.5458984-0.9492188-0.2211914-1.3964844c0.3251953-0.4472656,0.949707-0.546875,1.3969727-0.2207031      l5.1025391,3.7070312c0.4467773,0.3242188,0.5458984,0.9492188,0.2211914,1.3964844      C78.0361328,24.6191406,77.7314453,24.7617188,77.421875,24.7617188z"/></g><g><path d="M83.5717773,18.6142578c-0.3095703,0-0.6142578-0.1425781-0.8100586-0.4121094l-3.7075195-5.1025391      c-0.324707-0.4472656-0.2255859-1.0722656,0.2211914-1.3964844c0.4482422-0.3251953,1.0727539-0.2265625,1.3969727,0.2207031      l3.7075195,5.1025391c0.324707,0.4472656,0.2255859,1.0722656-0.2211914,1.3964844      C83.980957,18.5517578,83.7753906,18.6142578,83.5717773,18.6142578z"/></g><g><path d="M91.3173828,14.6669922c-0.421875,0-0.8134766-0.2685547-0.9511719-0.6914062l-1.9492188-5.9980469      C88.246582,7.453125,88.5336914,6.8886719,89.059082,6.7177734c0.5258789-0.1699219,1.0893555,0.1181641,1.2602539,0.6425781      l1.9492188,5.9980469c0.1704102,0.5244141-0.1166992,1.0888672-0.6420898,1.2597656      C91.5239258,14.6513672,91.4194336,14.6669922,91.3173828,14.6669922z"/></g></g><g><g><path d="M99.9042969,75.1914062c-0.5522461,0-1-0.4472656-1-1v-6.3076172c0-0.5527344,0.4477539-1,1-1s1,0.4472656,1,1      v6.3076172C100.9042969,74.7441406,100.456543,75.1914062,99.9042969,75.1914062z"/></g><g><path d="M67.4775391,51.6318359c-0.421875,0-0.8139648-0.2685547-0.9511719-0.6914062      c-0.1704102-0.5244141,0.1166992-1.0888672,0.6420898-1.2597656l5.9985352-1.9492188      c0.5273438-0.1699219,1.090332,0.1181641,1.2602539,0.6425781c0.1704102,0.5244141-0.1166992,1.0888672-0.6420898,1.2597656      l-5.9985352,1.9492188C67.684082,51.6162109,67.5795898,51.6318359,67.4775391,51.6318359z"/></g><g><path d="M72.3212891,61.1367188c-0.3095703,0-0.6142578-0.1425781-0.8100586-0.4121094      c-0.324707-0.4472656-0.2255859-1.0722656,0.2211914-1.3964844l5.1025391-3.7070312      c0.4487305-0.3251953,1.0722656-0.2265625,1.3969727,0.2207031s0.2255859,1.0722656-0.2211914,1.3964844l-5.1025391,3.7070312      C72.7304688,61.0742188,72.5249023,61.1367188,72.3212891,61.1367188z"/></g><g><path d="M79.8623047,68.6796875c-0.2036133,0-0.4091797-0.0625-0.5869141-0.1914062      c-0.4467773-0.3242188-0.5458984-0.9492188-0.2211914-1.3964844l3.7075195-5.1025391      c0.3251953-0.4462891,0.9501953-0.5449219,1.3969727-0.2207031s0.5458984,0.9492188,0.2211914,1.3964844l-3.7075195,5.1025391      C80.4765625,68.5371094,80.171875,68.6796875,79.8623047,68.6796875z"/></g><g><path d="M89.3681641,73.5224609c-0.1020508,0-0.206543-0.015625-0.309082-0.0488281      c-0.5253906-0.1708984-0.8125-0.7353516-0.6420898-1.2597656l1.9492188-5.9980469      c0.1708984-0.5253906,0.7353516-0.8134766,1.2602539-0.6425781c0.5253906,0.1708984,0.8125,0.7353516,0.6420898,1.2597656      l-1.9492188,5.9980469C90.1816406,73.2539062,89.7900391,73.5224609,89.3681641,73.5224609z"/></g></g><g><g><path d="M132.3310547,51.6318359c-0.1020508,0-0.206543-0.015625-0.309082-0.0488281l-5.9985352-1.9492188      c-0.5253906-0.1708984-0.8125-0.7353516-0.6420898-1.2597656c0.1708984-0.5244141,0.7353516-0.8125,1.2602539-0.6425781      l5.9985352,1.9492188c0.5253906,0.1708984,0.8125,0.7353516,0.6420898,1.2597656      C133.1450195,51.3632812,132.7529297,51.6318359,132.3310547,51.6318359z"/></g><g><path d="M127.4873047,61.1367188c-0.2036133,0-0.4091797-0.0615234-0.5869141-0.1914062l-5.1025391-3.7070312      c-0.4467773-0.3242188-0.5458984-0.9492188-0.2211914-1.3964844c0.3251953-0.4462891,0.9501953-0.5478516,1.3969727-0.2207031      l5.1025391,3.7070312c0.4467773,0.3242188,0.5458984,0.9492188,0.2211914,1.3964844      C128.1015625,60.9941406,127.796875,61.1367188,127.4873047,61.1367188z"/></g><g><path d="M119.9462891,68.6796875c-0.3095703,0-0.6142578-0.1425781-0.8100586-0.4121094l-3.7075195-5.1025391      c-0.324707-0.4472656-0.2255859-1.0722656,0.2211914-1.3964844c0.4482422-0.3251953,1.0727539-0.2255859,1.3969727,0.2207031      l3.7075195,5.1025391c0.324707,0.4472656,0.2255859,1.0722656-0.2211914,1.3964844      C120.3554688,68.6171875,120.1499023,68.6796875,119.9462891,68.6796875z"/></g><g><path d="M110.4404297,73.5224609c-0.421875,0-0.8134766-0.2685547-0.9511719-0.6914062l-1.9492188-5.9980469      c-0.1704102-0.5244141,0.1166992-1.0888672,0.6420898-1.2597656c0.5273438-0.1708984,1.0893555,0.1171875,1.2602539,0.6425781      l1.9492188,5.9980469c0.1704102,0.5244141-0.1166992,1.0888672-0.6420898,1.2597656      C110.6469727,73.5068359,110.5424805,73.5224609,110.4404297,73.5224609z"/></g></g><g><g><g><path d="M93.7148438,35.2197266c-0.1523438,0-0.3066406-0.0351562-0.4521484-0.1083984       c-0.378418-0.1923828-0.7084961-0.3642578-1-0.5166016c-1.730957-0.9052734-1.7314453-0.9042969-3.4594727,0       c-0.2915039,0.1523438-0.621582,0.3242188-1,0.5166016c-0.4921875,0.25-1.0942383,0.0537109-1.3447266-0.4384766       c-0.25-0.4921875-0.0537109-1.0947266,0.4384766-1.3447266c0.3710938-0.1884766,0.6948242-0.3574219,0.9804688-0.5068359       c2.4833984-1.2949219,2.8295898-1.2939453,5.3110352,0c0.2856445,0.1494141,0.609375,0.3183594,0.9804688,0.5068359       c0.4921875,0.25,0.6884766,0.8525391,0.4384766,1.3447266C94.4306641,35.0195312,94.0795898,35.2197266,93.7148438,35.2197266z       "/></g></g><g><g><path d="M112.4575195,35.2197266c-0.1523438,0-0.3066406-0.0351562-0.4521484-0.1083984       c-0.378418-0.1923828-0.7084961-0.3642578-1-0.5166016c-1.7290039-0.9042969-1.7294922-0.9052734-3.4594727,0       c-0.2915039,0.1523438-0.621582,0.3242188-1,0.5166016c-0.4921875,0.25-1.0942383,0.0537109-1.3447266-0.4384766       c-0.25-0.4921875-0.0537109-1.0947266,0.4384766-1.3447266c0.3710938-0.1884766,0.6948242-0.3574219,0.9804688-0.5068359       c2.480957-1.2949219,2.8271484-1.2958984,5.3110352,0c0.2856445,0.1494141,0.609375,0.3183594,0.9804688,0.5068359       c0.4921875,0.25,0.6884766,0.8525391,0.4384766,1.3447266       C113.1733398,35.0195312,112.8222656,35.2197266,112.4575195,35.2197266z"/></g></g></g><g><path d="M99.9042969,55.1513672c-3.8964844,0-7.3046875-2.1347656-8.1040039-5.0771484     c-0.1450195-0.5322266,0.1699219-1.0820312,0.7026367-1.2265625c0.5332031-0.1484375,1.0830078,0.1699219,1.2270508,0.703125     c0.5668945,2.0859375,3.1635742,3.6005859,6.1743164,3.6005859s5.6074219-1.5146484,6.1743164-3.6005859     c0.144043-0.5332031,0.6928711-0.8535156,1.2270508-0.703125c0.5327148,0.1445312,0.8476562,0.6943359,0.7026367,1.2265625     C107.2089844,53.0166016,103.8007812,55.1513672,99.9042969,55.1513672z"/></g></g></g></svg>