<?xml version="1.0" encoding="iso-8859-1"?>
<!-- Generator: Adobe Illustrator 19.0.0, SVG Export Plug-In . SVG Version: 6.00 Build 0)  -->
<svg version="1.1" id="Capa_1" xmlns="http://www.w3.org/2000/svg" xmlns:xlink="http://www.w3.org/1999/xlink" x="0px" y="0px"
	 viewBox="0 0 472.005 472.005" style="enable-background:new 0 0 472.005 472.005;" xml:space="preserve">
<path style="fill:#4398D1;" d="M80,156.002H0v160h80l144,152v-464L80,156.002z"/>
<path style="fill:#3E8CC7;" d="M0,228.002v88h80l144,152v-88l-144-152H0z"/>
<path style="fill:#2A7DB8;" d="M80,324.002c-4.418,0-8-3.582-8-8v-128c0-4.418,3.582-8,8-8s8,3.582,8,8v128
	C88,320.421,84.418,324.002,80,324.002z"/>
<g>
	<path style="fill:#87CED9;" d="M396.048,408.05c-4.418-0.01-7.992-3.599-7.982-8.018c0.005-2.111,0.844-4.135,2.334-5.63
		c87.482-87.473,87.489-229.302,0.016-316.784c-0.005-0.005-0.011-0.011-0.016-0.016c-3.178-3.07-3.266-8.134-0.196-11.312
		c3.07-3.178,8.134-3.266,11.312-0.196c0.067,0.064,0.132,0.13,0.196,0.196c93.724,93.725,93.724,245.683,0,339.408
		C400.211,407.204,398.173,408.05,396.048,408.05L396.048,408.05z"/>
	<path style="fill:#87CED9;" d="M345.144,357.138c-4.418-0.001-7.999-3.583-7.998-8.002c0-2.121,0.843-4.154,2.342-5.654
		c59.359-59.36,59.359-155.6,0-214.96c-3.069-3.178-2.982-8.243,0.196-11.312c3.1-2.994,8.015-2.994,11.116,0
		c65.611,65.605,65.617,171.976,0.012,237.588c-0.004,0.004-0.008,0.008-0.012,0.012
		C349.297,356.305,347.263,357.142,345.144,357.138z"/>
	<path style="fill:#87CED9;" d="M294.224,306.226c-4.418-0.001-7.999-3.583-7.998-8.002c0-2.121,0.843-4.154,2.342-5.654
		c31.241-31.242,31.241-81.894,0-113.136c-3.069-3.178-2.982-8.243,0.196-11.312c3.1-2.994,8.015-2.994,11.116,0
		c37.487,37.49,37.487,98.27,0,135.76C298.384,305.388,296.347,306.232,294.224,306.226z"/>
</g>
<path style="fill:#DE4C3C;" d="M192,436.002c-4.418,0-8-3.582-8-8v-384c0-4.418,3.582-8,8-8s8,3.582,8,8v384
	C200,432.421,196.418,436.002,192,436.002z"/>
<g>
</g>
<g>
</g>
<g>
</g>
<g>
</g>
<g>
</g>
<g>
</g>
<g>
</g>
<g>
</g>
<g>
</g>
<g>
</g>
<g>
</g>
<g>
</g>
<g>
</g>
<g>
</g>
<g>
</g>
</svg>
